<svg width="466" height="466" viewBox="0 0 466 466" fill="none" xmlns="http://www.w3.org/2000/svg">
<circle cx="233" cy="233" r="233" fill="#2BD1D1"/>
<path d="M281.081 314.445C288.81 313.141 300.552 307.921 307.177 303.004C310.288 300.695 329.458 282.127 349.632 261.753C383.756 227.327 386.567 224.216 389.979 217.19C395.098 206.551 397.005 198.422 397.005 187.08C396.904 176.24 394.897 167.308 390.581 158.576C386.065 149.443 381.749 144.324 367.597 130.574C356.457 119.734 353.345 117.325 346.32 113.913C326.949 104.679 307.779 104.679 288.308 114.013C280.278 117.827 278.472 119.433 257.596 140.108L225.898 171.605L239.046 184.553L252.194 197.5L281.282 168.512C303.463 146.532 306.374 144.525 317.414 144.525C327.049 144.525 331.666 147.034 344.011 159.078C356.858 171.624 359.97 177.043 359.97 187.08C359.97 199.024 358.866 200.429 320.224 238.869C297.441 261.652 284.293 273.998 281.282 275.503C274.558 278.916 258.8 278.715 254.183 275.102C253.38 274.399 248.261 269.883 242.842 264.864C235.314 257.939 232.303 254.426 229.995 249.709C224.575 238.669 225.077 228.933 231.5 219.298L242.842 206.451L229.995 197.5C223.872 191.478 216.905 181.203 215.5 180.5C213.292 179.296 207.312 190.091 203.799 194.106C198.48 200.027 192.458 212.573 190.35 221.807C187.038 237.063 189.948 255.43 197.677 267.976C202.896 276.306 202.795 276.206 218.051 290.96C232.905 305.312 237.02 308.122 248.763 312.137C257.696 315.048 271.848 316.152 281.081 314.445Z" fill="white"/>
<path d="M185.923 152.808C178.195 154.112 166.452 159.331 159.828 164.249C156.717 166.558 137.547 185.126 117.373 205.5C83.2484 239.926 80.4381 243.037 77.0257 250.063C71.907 260.702 70 268.831 70 280.173C70.1004 291.012 72.1077 299.945 76.4235 308.677C80.94 317.81 85.2557 322.929 99.4074 336.679C110.548 347.519 113.659 349.928 120.685 353.34C140.056 362.574 159.226 362.574 178.697 353.24C186.726 349.426 188.533 347.82 209.409 327.144L237.311 299.443L224.163 286.496L211.015 273.549L185.723 298.741C163.542 320.721 160.631 322.728 149.591 322.728C139.956 322.728 135.339 320.219 122.994 308.175C110.147 295.629 107.035 290.209 107.035 280.173C107.035 268.229 108.139 266.824 146.78 228.384C169.564 205.6 182.712 193.255 185.723 191.75C192.447 188.337 208.205 188.538 212.822 192.151C213.625 192.854 218.743 197.37 224.163 202.389C231.691 209.314 234.702 212.827 237.01 217.544C242.43 228.584 241.928 238.32 235.505 247.955L220.349 264.616L231.59 275.656C237.713 281.678 243.835 287.198 245.24 287.901C247.448 289.105 259.693 277.162 263.206 273.147C268.525 267.226 274.547 254.68 276.655 245.446C279.967 230.19 277.056 211.823 269.328 199.277C264.109 190.947 264.209 191.047 248.954 176.293C234.099 161.941 229.984 159.131 218.242 155.116C209.309 152.205 195.157 151.101 185.923 152.808Z" fill="white"/>
</svg>
